<?xml version="1.0" standalone="no"?>
<!DOCTYPE svg PUBLIC "-//W3C//DTD SVG 20010904//EN"
 "http://www.w3.org/TR/2001/REC-SVG-20010904/DTD/svg10.dtd">
<svg version="1.0" xmlns="http://www.w3.org/2000/svg"
 width="1104.000000pt" height="1104.000000pt" viewBox="0 0 1104.000000 1104.000000"
 preserveAspectRatio="xMidYMid meet">
<metadata>
Created by potrace 1.11, written by Peter Selinger 2001-2013
</metadata>
<g transform="translate(0.000000,1104.000000) scale(0.100000,-0.100000)"
fill="#000000" stroke="none">
<path d="M888 7212 c-23 -3 -28 -8 -29 -30 -3 -183 0 -3355 4 -3359 5 -4 211
-7 359 -4 l46 1 -1 775 c-2 769 -2 775 18 776 27 0 1853 0 1931 0 l61 -1 0
-770 c0 -424 3 -773 6 -776 5 -5 247 -8 383 -5 l20 1 0 1695 1 1695 -46 1
c-357 5 -361 5 -362 -16 0 -11 -1 -348 -2 -750 l-2 -730 -1002 0 c-889 0
-1003 1 -1004 15 0 8 0 345 0 748 l-1 732 -21 1 c-97 3 -337 3 -359 1z"/>
<path d="M4313 7212 l-61 -3 0 -1694 0 -1695 86 -1 c190 -1 295 1 300 6 3 3 6
671 6 1485 0 1224 2 1478 13 1468 7 -6 13 -15 13 -21 0 -11 72 -210 90 -252
13 -28 52 -128 55 -140 3 -13 15 -45 26 -70 13 -31 171 -449 173 -460 2 -5 9
-26 18 -46 9 -20 19 -47 23 -60 4 -13 13 -37 20 -54 7 -16 30 -75 50 -130 43
-117 75 -200 110 -287 14 -35 25 -67 25 -71 0 -5 7 -23 14 -40 8 -18 51 -129
96 -247 44 -118 98 -260 120 -315 21 -55 53 -138 70 -185 31 -86 35 -96 64
-163 9 -21 16 -42 16 -48 0 -6 6 -25 14 -42 7 -18 24 -59 36 -92 12 -33 26
-69 31 -80 5 -11 18 -47 30 -80 12 -33 25 -64 29 -68 10 -11 321 -10 331 0 7
7 82 189 93 228 2 6 6 19 11 30 4 11 19 52 33 90 14 39 29 74 34 80 4 5 8 16
8 25 1 8 9 33 20 55 10 22 16 43 14 47 -2 3 0 9 6 13 5 3 10 15 10 26 0 10 4
19 10 19 5 0 9 3 8 8 -2 6 78 233 102 287 5 11 21 52 35 90 15 39 30 79 35 90
11 27 23 58 26 70 3 15 104 277 115 300 5 11 13 34 18 50 6 17 23 64 39 105
16 41 61 161 101 265 39 105 75 199 80 210 4 11 18 47 31 80 12 33 26 69 30
80 5 11 41 106 80 210 95 253 111 296 121 320 5 11 24 61 43 110 l35 90 1 -75
c0 -41 0 -713 1 -1492 l0 -1418 57 -1 c153 -1 325 2 331 6 4 2 8 765 8 1695
l0 1690 -36 1 c-59 0 -513 1 -547 0 -27 -1 -32 -6 -44 -43 -8 -24 -33 -92 -57
-153 -24 -60 -43 -118 -43 -127 0 -9 -4 -19 -10 -23 -5 -3 -14 -20 -19 -38
-10 -34 -83 -232 -149 -404 -22 -57 -37 -103 -33 -103 3 0 2 -4 -4 -8 -5 -4
-18 -32 -29 -62 -16 -47 -65 -180 -91 -245 -4 -11 -9 -25 -10 -30 -2 -10 -46
-126 -65 -170 -4 -11 -13 -33 -19 -50 -6 -16 -16 -43 -22 -60 -7 -16 -13 -34
-15 -40 -3 -12 -138 -374 -160 -430 -25 -61 -31 -77 -43 -110 -6 -16 -16 -43
-22 -60 -7 -16 -13 -34 -15 -40 -2 -10 -50 -139 -61 -165 -3 -8 -7 -17 -8 -20
-1 -3 -5 -12 -8 -20 -13 -32 -78 -206 -82 -220 -9 -31 -80 -216 -89 -229 -7
-11 -14 -2 -27 35 -9 27 -28 78 -42 114 -13 36 -70 189 -127 340 -56 151 -108
289 -115 305 -7 17 -20 53 -29 80 -9 28 -21 59 -26 70 -5 11 -23 58 -41 105
-17 47 -42 112 -54 145 -13 33 -35 94 -50 135 -14 41 -30 84 -35 95 -5 11 -19
47 -30 80 -12 33 -25 69 -30 80 -4 11 -18 47 -30 80 -13 33 -26 69 -30 80 -5
11 -18 47 -30 80 -12 33 -26 69 -31 80 -12 27 -60 158 -63 170 -1 6 -10 27
-19 49 -9 21 -17 42 -17 47 0 5 -6 23 -14 41 -14 32 -27 68 -28 78 0 3 -9 22
-19 43 -11 20 -17 37 -13 37 4 0 1 7 -6 15 -7 8 -9 15 -5 15 4 0 3 6 -2 13 -6
6 -16 30 -23 52 -7 22 -18 54 -26 70 -7 17 -36 94 -65 173 l-53 142 -75 1
c-42 0 -157 1 -256 2 -99 1 -208 1 -242 -1z"/>
<path d="M9655 7175 c-55 -19 -100 -35 -100 -35 0 -1 -7 -3 -15 -5 -15 -2
-189 -60 -220 -72 -8 -3 -19 -7 -25 -9 -16 -3 -438 -144 -455 -151 -8 -4 -17
-7 -20 -8 -31 -10 -126 -39 -130 -40 -3 -1 -12 -5 -20 -8 -8 -3 -44 -15 -80
-27 -106 -33 -104 -9 -17 -272 43 -128 82 -242 86 -253 11 -28 241 -716 246
-738 11 -46 9 -47 165 8 58 20 110 38 115 39 6 1 16 5 23 9 6 5 12 6 12 2 0
-3 13 1 29 9 15 8 39 17 52 20 13 3 98 30 189 61 91 31 170 57 175 58 6 2 16
6 23 10 6 5 12 6 12 2 0 -3 13 1 29 9 15 8 39 17 52 20 13 2 51 14 84 26 33
12 67 23 75 25 16 4 59 19 125 43 22 7 47 15 55 17 20 4 70 24 70 27 0 2 -48
145 -106 318 -58 173 -106 320 -108 325 -2 10 -195 591 -203 613 -6 15 0 17
-118 -23z"/>
</g>
</svg>
