<svg id="Ebene_1" data-name="Ebene 1" xmlns="http://www.w3.org/2000/svg" viewBox="0 0 533.83 111.43"><defs><style>.cls-1{fill:#fb5555;}</style></defs><title>logo_full_fb5555</title><path class="cls-1" d="M106.91,53.63V2.91c0-2.73,0-2.55,2.62-2.55,5.16,0,10.33,0,15.49,0,2,0,2.14.13,2.77,1.84,2.71,7.23,5.39,14.47,8.09,21.7q3.76,10,7.56,20.05,4.2,11.17,8.4,22.36c2.73,7.31,5.42,14.63,8.15,21.94a3.53,3.53,0,0,0,.73.88,4.31,4.31,0,0,0,.74-.94c.79-2,1.54-4,2.3-6Q169.87,65.82,176,49.48c3.47-9.26,7-18.49,10.48-27.74,2.16-5.75,4.3-11.51,6.38-17.29C194.3.38,194.24.36,198.55.36c4.5,0,9,0,13.5,0,1.76,0,1.79.08,1.83,1.85,0,1,0,2,0,3q0,49.34,0,98.69c0,3.24.28,3-2.91,3-2.67,0-5.33,0-8,0-1.51,0-2-.69-1.93-2.19.12-1.65.29-3.3.29-5q0-40.86,0-81.71c0-.82-.09-1.65-.17-2.48,0-.12-.2-.28-.34-.31a.44.44,0,0,0-.38.17,11.4,11.4,0,0,0-.5,1.13q-5.4,14.2-10.8,28.41-5.64,14.91-11.28,29.81Q173.63,86,169.33,97.13c-1.06,2.78-2.16,5.56-3.16,8.37a1.76,1.76,0,0,1-1.95,1.44c-2.58-.07-5.17-.09-7.74,0a2.2,2.2,0,0,1-2.36-1.77c-2.25-6.06-4.48-12.14-6.76-18.2q-5.52-14.69-11.11-29.34-6.18-16.29-12.38-32.59-1.86-4.87-3.79-9.73a2.09,2.09,0,0,0-.45-.55,3.25,3.25,0,0,0-.18.68q0,1.62,0,3.24,0,42.48,0,85c0,3.56.35,3.27-3.16,3.27-2.59,0-5.17,0-7.75,0-1.5,0-1.54-.1-1.6-1.56,0-.66,0-1.33,0-2Z"/><path class="cls-1" d="M89.45,53.83v50.22c0,3,.22,2.89-2.81,2.88s-5.84,0-8.75,0c-1,0-1.57-.36-1.5-1.45,0-.58,0-1.17,0-1.75q0-21.11,0-42.22c0-3.13,0-3.14-3.19-3.14h-57c-3.08,0-2.77-.08-2.77,2.91q0,21.23,0,42.47c0,3.53.28,3.15-3.27,3.17-2.58,0-5.16,0-7.75,0-2.39,0-2.4,0-2.41-2.53,0-1.25,0-2.5,0-3.75V3.2C0,.2-.17.35,2.85.36s6,0,9,0C13.31.39,13.37.5,13.44,2c0,.67,0,1.33,0,2q0,20.24,0,40.47c0,3.25-.25,2.94,3,2.94H73.16c3.17,0,3.23-.06,3.23-3.21q0-20.49,0-41C76.4.22,76.18.35,79.26.35c2.84,0,5.67,0,8.5,0,1.62,0,1.66.07,1.68,1.74,0,4,0,8,0,12V53.83Z"/><path class="cls-1" d="M254.56,53.49c-.87,0-1.22-.52-1.45-1.18-.6-1.73-1.16-3.46-1.74-5.2l-7.89-23.6c-.84-2.52-1.69-5-2.51-7.55-.78-2.35-.77-2.37,1.52-3.15q4.83-1.65,9.68-3.27L277.7,1l1.19-.38c1.51-.42,1.65-.4,2.15,1.1,1.66,5,3.25,9.94,4.91,14.9.94,2.83,2,5.63,2.91,8.46,1.55,4.64,3.07,9.28,4.6,13.92.4,1.21.36,1.43-.83,1.84-3.37,1.17-6.76,2.3-10.15,3.43L256.7,52.87C256,53.1,255.27,53.29,254.56,53.49Z"/><path class="cls-1" d="M320.3,39.24c0-2.49,0-5,0-7.49,0-.93-.06-1.8,1.25-2s2.15,0,2.76,1a3.19,3.19,0,0,1,.2.46c1.1,3,2.21,5.9,3.29,8.85.46,1.25.84,2.52,1.29,3.76a3,3,0,0,0,.57.77,2.75,2.75,0,0,0,.61-.72c.59-1.55,1.13-3.11,1.69-4.67,1-2.74,2-5.47,3-8.2.39-1.05,2.73-1.67,3.59-1a1.36,1.36,0,0,1,.37.86c.06.75,0,1.5,0,2.25,0,4.57,0,9.15,0,13.72,0,.75.36,1.78-.91,2-.91.13-1.18-.28-1.19-2,0-3.5,0-7,0-10.49,0-.58,0-1.16-.05-1.74,0-.2-.23-.37-.35-.56-.17.15-.41.27-.48.46-1,2.79-2,5.59-3.07,8.38-.63,1.71-1.34,3.4-2,5.11a1.07,1.07,0,0,1-1.34.79,2.16,2.16,0,0,1-1.33-.87,25.74,25.74,0,0,1-1.29-3.22c-1.13-3.12-2.23-6.25-3.36-9.36-.09-.24-.39-.41-.59-.61-.05.24-.13.47-.16.71a28,28,0,0,0-.07,8.91,8.73,8.73,0,0,1-.16,3c-.11.69-.17,1.56-1.28,1.49s-1-.92-1-1.64c0-2.66,0-5.33,0-8Z"/><path class="cls-1" d="M335.91,10.3q0,4,0,8c0,.74.1,1.58-1,1.61-1,0-1.42-.38-1.46-1.58-.06-1.83-.05-3.66,0-5.49,0-1.07-.42-1.47-1.48-1.46-2.58,0-5.16,0-7.73,0-.94,0-1.38.37-1.36,1.32,0,1.58,0,3.16,0,4.74a4.18,4.18,0,0,1-.19,1.71,1.57,1.57,0,0,1-1.15.71,1.41,1.41,0,0,1-1.1-.68A5.72,5.72,0,0,1,320,17c.05-4.56.16-9.12.25-13.68,0-.57,0-1.14.06-1.71s.27-1.11,1-1.13,1.31.26,1.44,1.05a10.69,10.69,0,0,1,.06,1.5c0,1.49,0,3,0,4.49,0,.88.24,1.42,1.25,1.41,2.67,0,5.33,0,8,0,.95,0,1.34-.4,1.33-1.34,0-1.58,0-3.16,0-4.74a5.67,5.67,0,0,1,.11-1.49,1.16,1.16,0,0,1,1.58-.81,1.41,1.41,0,0,1,.77,1c.06,2.91,0,5.82,0,8.73Z"/><path class="cls-1" d="M430.31,107.6a54.54,54.54,0,0,1-5.5-1.8,4.15,4.15,0,0,1-2.46-3.52c0-.4.24-1.15.5-1.21a3.17,3.17,0,0,1,1.6.27c.17.06.23.41.35.63a6.07,6.07,0,0,0,8.08,2.37,2.91,2.91,0,0,0,1.72-2.8A2.68,2.68,0,0,0,432.31,99c-1.86-.41-3.75-.72-5.59-1.2-3.63-1-4.2-3.33-3.86-6a5.6,5.6,0,0,1,4.88-4.36,16.62,16.62,0,0,1,3.73,0,5.91,5.91,0,0,1,4.93,3.69c.17.37.14,1.24,0,1.29a3.14,3.14,0,0,1-1.81.14c-.38-.12-.6-.75-.91-1.14a5.09,5.09,0,0,0-6.88-1.2,3.1,3.1,0,0,0-1.46,3.2c.17,1.24,1.08,1.63,2,1.9,1.43.41,2.89.69,4.34,1,.64.16,1.28.33,1.92.52a4,4,0,0,1,3.2,3.42c.28,2.13.16,4.32-1.9,5.55A26.58,26.58,0,0,1,430.31,107.6Z"/><path class="cls-1" d="M413.8,96.86c0,2.42,0,4.83,0,7.24a8.36,8.36,0,0,1-.09,1.74c-.21,1-1.68,1.52-2.07.7-.67-1.37-1.18-.55-1.78-.2-3.65,2.15-7.58.15-8.64-3.63a8.92,8.92,0,0,1,.21-6.09,6,6,0,0,1,8.3-3c1.48.75,1.51.72,1.54-.92s0-3,0-4.49c0-.77.25-1.3,1.14-1.27a1.18,1.18,0,0,1,1.32,1.19c.06,1.49,0,3,.05,4.49s0,2.83,0,4.24ZM403.32,100a12.51,12.51,0,0,0,.11,1.74,4.8,4.8,0,0,0,3.48,3.53,4.08,4.08,0,0,0,3.82-2.3,7,7,0,0,0,0-5.8,3.57,3.57,0,0,0-6.12-.83A4.87,4.87,0,0,0,403.32,100Z"/><path class="cls-1" d="M326.41,101.43c-2.87-.94-4.43.77-5.2,3.78-.22.84-.46,1.82-1.77,1.66-.89-.1-1.21-.43-.89-1.28.75-1.94,1.55-3.85,2.33-5.77,1.34-3.3,2.67-6.6,4-9.9.33-.82.49-1.79,1.57-2.07,1.41-.36,2.25,0,2.89,1.57,1.52,3.67,3,7.37,4.47,11.06.59,1.46,1.2,2.91,1.77,4.37.26.68.68,1.52-.31,1.91a1.45,1.45,0,0,1-2-1c-.24-.61-.49-1.23-.69-1.86a3.15,3.15,0,0,0-3.72-2.5A24.65,24.65,0,0,1,326.41,101.43Zm.6-2.09c.83,0,1.66,0,2.49,0,.61,0,1-.39.75-1-.82-2.26-1.66-4.5-2.56-6.73-.3-.72-.72-.54-1,.09-.63,1.53-1.28,3.05-1.88,4.6C323.66,99.36,323.67,99.36,327,99.34Z"/><path class="cls-1" d="M335.61,65.65c-.23,2.55-.4,5.11-.72,7.65A5,5,0,0,1,332,77.1,8.57,8.57,0,0,1,321.8,76,6,6,0,0,1,320,71.47c-.21-3.81-.08-7.65-.1-11.48,0-.86.47-1.15,1.27-1.15s1.24.33,1.24,1.18c0,3.16,0,6.32,0,9.48a16.29,16.29,0,0,0,.48,3.18c.53,2.32,2.44,3.39,5.48,3.16a4.6,4.6,0,0,0,4.46-4.49c.1-3.24,0-6.49.06-9.73,0-.59,0-1.17,0-1.75s.43-1,1.12-1,1.36.16,1.37,1c0,1.91,0,3.83,0,5.74Z"/><path class="cls-1" d="M355.84,102.35c0-2.48,0-5,0-7.46,0-1.6.66-2,1.94-1.08a1.22,1.22,0,0,0,1.5.11,9,9,0,0,1,2.53-1,6,6,0,0,1,6.53,5.13,17.41,17.41,0,0,1,.06,3,6.32,6.32,0,0,1-4.63,6.08,4.89,4.89,0,0,1-4.42-1,5.87,5.87,0,0,0-.83-.42,6.39,6.39,0,0,0-.19,1c0,1.16,0,2.33,0,3.49,0,.8-.32,1.22-1.16,1.25s-1.34-.42-1.33-1.34c0-2.57,0-5.14,0-7.72Zm10-2.55a7.77,7.77,0,0,0,0-1.66A3.74,3.74,0,0,0,362.93,95a3.49,3.49,0,0,0-3.77,1.35c-1.44,1.78-1.4,5.72,0,7.5a3.62,3.62,0,0,0,4.25,1C365.46,103.9,366.08,102.23,365.82,99.8Z"/><path class="cls-1" d="M339.29,105.83c0-3.56,0-7.12,0-10.68,0-1.93.43-2.19,2.11-1.16.71.43,1.09.05,1.55-.19a5.86,5.86,0,0,1,5.72-.23,5.42,5.42,0,0,1,2.54,3,8.56,8.56,0,0,1-.28,7.67,5.4,5.4,0,0,1-7,2.49c-.38-.15-.74-.36-1.12-.54-.64-.3-.93,0-1,.61-.1,1.24-.23,2.48-.22,3.72s-.92.89-1.57.93-.88-.35-.83-1.09c.11-1.49,0-3,0-4.48Zm10.18-5.31a21.07,21.07,0,0,0-.33-2.53,3.78,3.78,0,0,0-3.7-3.08c-1.78.08-3,1.31-3.66,3.18a8.16,8.16,0,0,0,0,3.9c.29,2.34,2,3,3.55,3.24,1.2.23,2.89-.94,3.47-2.37A16.34,16.34,0,0,0,349.47,100.52Z"/><path class="cls-1" d="M371.3,9.91V2.67c0-.5,0-1,0-1.5.08-.78.57-1.31,1.31-1.14a1.69,1.69,0,0,1,1.07,1.11,18.58,18.58,0,0,1,.09,3c0,.41,0,.83,0,1.24,0,.57.13,1.14.2,1.7a11.32,11.32,0,0,1,1.54-.63A12.3,12.3,0,0,1,378.48,6a4.51,4.51,0,0,1,4.31,4.64c.12,2.66,0,5.32,0,8,0,.92-.35,1.37-1.33,1.34s-1.16-.48-1.16-1.26c0-1.92,0-3.83,0-5.75a11.9,11.9,0,0,0-.16-2.23c-.39-1.86-1.45-2.72-3-2.6a3.2,3.2,0,0,0-3.25,3.1c-.1,1.66,0,3.33-.05,5,0,.75,0,1.5,0,2.25s-.36,1.45-1.31,1.49-1.16-.71-1.16-1.51V9.91Z"/><path class="cls-1" d="M415.84,10c0-2.49,0-5,0-7.48a3.8,3.8,0,0,1,.07-1.48c.22-.45.74-1,1.13-1a1.55,1.55,0,0,1,1.19,1,18.4,18.4,0,0,1,.11,3c0,1,.07,2,.11,3,.9-.25,1.82-.45,2.7-.76a4.56,4.56,0,0,1,5,1.26,5.33,5.33,0,0,1,1.12,3.15c.16,2.65,0,5.32.06,8,0,.94-.4,1.36-1.35,1.34s-1.17-.68-1.17-1.51c0-2.16,0-4.33,0-6.49a4.38,4.38,0,0,0-.17-1.71c-.5-1.06-1.14-2.08-2.48-2.2A3.06,3.06,0,0,0,419,9.62a7,7,0,0,0-.66,2.85c-.1,2.07,0,4.16-.06,6.24,0,1-.46,1.26-1.45,1.2s-1-.67-1-1.39Q415.85,14.29,415.84,10Z"/><path class="cls-1" d="M469.15,100.84c-1.31,0-2.63,0-3.95,0-.78,0-.92.55-.74,1.23.78,2.91,4.23,4.17,6.37,1.78.33-.36.68-.83,1.1-.93a5,5,0,0,1,1.65.17c-.12.52-.06,1.18-.37,1.54-1.7,2-3.6,3.34-7.29,2.17a6.13,6.13,0,0,1-4.11-5.68,20.86,20.86,0,0,1,0-2.5,6,6,0,0,1,4.74-5.44,5.45,5.45,0,0,1,6.22,1.91c1.22,1.51,1.16,3.25,1,5,0,.27-.71.64-1.11.68-1.16.09-2.33,0-3.5,0Zm-1.33-2h0c.83,0,1.66,0,2.48,0s1.11-.56,1-1.33A3,3,0,0,0,468.54,95a4.55,4.55,0,0,0-3.61,1.74c-.85,1.56-.6,2,1.16,2.07C466.67,98.84,467.24,98.83,467.82,98.83Z"/><path class="cls-1" d="M390.38,39V31.74c0-.5,0-1,0-1.49a1.28,1.28,0,0,1,1.48-1.31c.94,0,1,.7,1,1.39,0,1.67,0,3.33,0,5,0,1,.28,1.17,1.21.63,1.93-1.12,3.81-1.48,5.86-.26a3.27,3.27,0,0,1,1.82,2.78c.09,3.07.05,6.14.06,9.22,0,.64-.18,1.14-.95,1.18s-1.15-.48-1.15-1.25c0-1.91,0-3.82,0-5.73a12.58,12.58,0,0,0-.34-2.44A2.68,2.68,0,0,0,397,37c-1.49-.05-3,.36-3.49,2.2a14.11,14.11,0,0,0-.53,3.16c-.09,1.74,0,3.49,0,5.23,0,.62-.11,1.19-.88,1.26a1.28,1.28,0,0,1-1.59-1.18,12.3,12.3,0,0,1,0-1.49q0-3.62,0-7.23Z"/><path class="cls-1" d="M413.1,42.86c-1.16,0-2.32,0-3.48,0s-1.57.75-1.06,1.84c1.06,2.26,4.2,3.6,6.27,1.13a2.19,2.19,0,0,1,1.86-1c.93,0,1.18.4.79,1.26a6.22,6.22,0,0,1-6.23,3.18,6.38,6.38,0,0,1-5.45-6.44,8.66,8.66,0,0,1,.93-4.8,6.06,6.06,0,0,1,7-2.91c3.2,1,4.32,3.82,4.14,6.59-.06.87-.5,1.15-1.28,1.15Zm-1.36-2h0c.83,0,1.67,0,2.49,0s1.24-.55,1-1.51c-.37-1.53-1.56-2.06-2.91-2.32A3.23,3.23,0,0,0,409,38.7c-.85,2-.81,2.23,1.24,2.17C410.75,40.85,411.25,40.86,411.74,40.86Z"/><path class="cls-1" d="M393.23,100.85c-1.33,0-2.66,0-4,0-.74,0-1,.51-.78,1.22.85,3,4.27,4.09,6.36,1.82.28-.3.52-.79.84-.85a8,8,0,0,1,1.89,0,5.16,5.16,0,0,1-.37,1.57,6.22,6.22,0,0,1-5.81,2.62c-2.87-.52-5.07-2.44-5.45-5.11s-.29-5.49,2-7.62A6.13,6.13,0,0,1,395,93.7a6.25,6.25,0,0,1,2.84,6.16,1,1,0,0,1-1.21,1c-1.15,0-2.3,0-3.44,0Zm-1.18-2c.66,0,1.33,0,2,0,1.24-.07,1.5-.58,1.13-1.79a2.85,2.85,0,0,0-2.86-2A3.48,3.48,0,0,0,388.82,97c-.68,1.37-.49,1.8,1,1.87C390.55,98.86,391.3,98.83,392.05,98.83Z"/><path class="cls-1" d="M514.4,100.86c-1.24,0-2.49,0-3.73,0-.24,0-.69.6-.63.76.44,1.15.82,2.38,2,3a4.05,4.05,0,0,0,4.58-.66c.3-.28.48-.8.81-.9a5.4,5.4,0,0,1,1.61,0,4,4,0,0,1-.08,1.36c-.88,2-3.7,3.23-6.11,2.69a6.66,6.66,0,0,1-5.46-7c.22-3.68,1.62-6.2,5.13-7,4.48-1.08,7.35,2.8,7.23,6.33a1.28,1.28,0,0,1-1.39,1.4c-1.33,0-2.66,0-4,0Zm-.75-2v0c.91,0,1.82,0,2.72,0s1-.48.77-1.18a3.62,3.62,0,0,0-3-2.65,3.48,3.48,0,0,0-3.42,2c-.75,1.41-.49,1.85,1.17,1.9C512.5,98.85,513.07,98.84,513.65,98.84Z"/><path class="cls-1" d="M461.45,13.47c-1.08,0-2.16,0-3.24,0-1.26,0-1.68.57-1.33,1.73A3.87,3.87,0,0,0,460,18.05a3.38,3.38,0,0,0,3.53-1.2c.06-.06.08-.15.13-.21.91-1.14,1.66-1.48,2.13-.88.66.81.08,1.61-.39,2.23a5.52,5.52,0,0,1-5,2.27c-2.39-.2-4.58-1.1-5.55-3.58a9.32,9.32,0,0,1,.07-7.29C456.7,5.32,462.66,4.7,465.08,8a8,8,0,0,1,1.11,2.71c.59,2.32.22,2.74-2.24,2.76Zm-1.36-1.63v0c.82,0,1.64,0,2.46,0,1.2-.07,1.55-.71,1.05-1.8A3.26,3.26,0,0,0,460.31,8a4,4,0,0,0-3.39,2.84c-.13.57.08,1,.7,1C458.44,11.88,459.27,11.84,460.09,11.84Z"/><path class="cls-1" d="M383.92,71.46c-1.16,0-2.33,0-3.49,0-1.39.06-1.45.32-1.1,1.73A3.7,3.7,0,0,0,386,74.56a2.21,2.21,0,0,1,.87-.85,1.77,1.77,0,0,1,1.36,0c.22.15.2.88.06,1.27-1.13,3.2-6.12,4.62-9.44,1.62a5.5,5.5,0,0,1-2.09-4.58c.07-.91,0-1.83.05-2.74a5.77,5.77,0,0,1,3.49-4.81,5.51,5.51,0,0,1,6.33.62,6.26,6.26,0,0,1,2.19,5.08c0,.82-.34,1.24-1.18,1.24h-3.74Zm-1.29-1.62h0c.75,0,1.49,0,2.23,0,1.4-.12,1.68-.74,1-2a3.31,3.31,0,0,0-5.86-.18,6.32,6.32,0,0,0-.48,1.83,15.22,15.22,0,0,0,1.63.34A12.32,12.32,0,0,0,382.63,69.84Z"/><path class="cls-1" d="M465.78,70.92c0,4-1.65,6.21-4.91,7-2.14.55-5.19-.27-6.48-2.06a8.21,8.21,0,0,1-.19-9.56,6.33,6.33,0,0,1,6.66-2.21,6.21,6.21,0,0,1,4.91,5.29A12.33,12.33,0,0,1,465.78,70.92Zm-2.31.44a21.28,21.28,0,0,0-.69-2.86,3.64,3.64,0,0,0-6.87-.16,6.62,6.62,0,0,0,0,5.54A3.82,3.82,0,0,0,462,75,5.2,5.2,0,0,0,463.47,71.36Z"/><path class="cls-1" d="M353.12,13.13c-.23,3-1.33,5.12-4.05,6.47a6.22,6.22,0,0,1-8.26-2.79A8,8,0,0,1,340.88,9c1.25-2.28,3.43-3,5.87-3a5.36,5.36,0,0,1,5.17,3.23A28.94,28.94,0,0,1,353.12,13.13Zm-2.55,0a19.91,19.91,0,0,0-1-3.18A3.34,3.34,0,0,0,346.07,8a3.8,3.8,0,0,0-3.18,2.49,7.08,7.08,0,0,0-.14,4.87,3.8,3.8,0,0,0,3.48,2.77,3.7,3.7,0,0,0,3.6-2.25A18.5,18.5,0,0,0,350.57,13.09Z"/><path class="cls-1" d="M339.88,70.9c0-1.66,0-3.32,0-5s1-2.19,2.21-1.25c.87.69,1.16.37,1.84,0a6.17,6.17,0,0,1,2.35-.75c2.41-.2,4.88,1,5.07,4.24.17,2.81,0,5.64,0,8.46,0,.62-.11,1.17-.89,1.24S349,77.59,349,76.67c-.06-1.83,0-3.65-.05-5.48,0-.83,0-1.66,0-2.49A2.81,2.81,0,0,0,346.4,66a3.12,3.12,0,0,0-3.49,2.15,18,18,0,0,0-.48,3.43c-.08,1.65,0,3.32,0,5,0,.94-.42,1.34-1.36,1.31s-1.16-.45-1.16-1.25c0-1.91,0-3.82,0-5.73Z"/><path class="cls-1" d="M477.79,100c0-1.66,0-3.33,0-5s.78-2.19,2.15-1.37a1.55,1.55,0,0,0,1.72.06,6.61,6.61,0,0,1,2.32-.77c2.81-.07,4.9,1,5.21,4.13.29,2.88.08,5.81.08,8.72,0,.89-.55,1.08-1.31,1.08s-1.15-.48-1.15-1.26c0-2.24,0-4.49,0-6.73a4.18,4.18,0,0,0-.18-1.71A3.1,3.1,0,0,0,484.13,95a3,3,0,0,0-3,1.43,6.42,6.42,0,0,0-.79,2.8c-.11,2.07-.05,4.15,0,6.23,0,.86-.21,1.45-1.23,1.45s-1.31-.49-1.3-1.4C477.81,103.66,477.79,101.83,477.79,100Z"/><path class="cls-1" d="M359.86,42c0-1.66,0-3.32,0-5s.89-2.24,2.14-1.34c.82.59,1.15.41,1.86,0,3.52-2,7.15-.2,7.45,3.74.2,2.73.07,5.48,0,8.22,0,1-.66,1.43-1.65,1.21-.76-.17-.82-.72-.82-1.32,0-1.75,0-3.49,0-5.23,0-.75,0-1.5,0-2.24A3.1,3.1,0,0,0,366.41,37a3.38,3.38,0,0,0-3.6,2.06,7.09,7.09,0,0,0-.43,2.42c-.06,2,0,4,0,6,0,.87-.23,1.43-1.24,1.44s-1.28-.52-1.27-1.41c0-1.83,0-3.65,0-5.48Z"/><path class="cls-1" d="M436.15,82.86c-1.2-.07-1.83-.39-1.83-1.34,0-.5.08-.86.79-1,2.39-.47,3.22-2,2.33-4.32-1.33-3.39-2.72-6.76-4.05-10.16-.18-.47-.34-1.25-.1-1.5.53-.57,1.82-.13,2.24.7s.9,2,1.3,3c.64,1.62,1.23,3.26,1.88,4.87a5.81,5.81,0,0,0,.69,1,6.52,6.52,0,0,0,.58-.93c.81-2.09,1.6-4.18,2.39-6.27a17.44,17.44,0,0,1,.72-1.86,1.87,1.87,0,0,1,2.22-.54c.79.46.15,1,0,1.51-1.66,4.33-3.29,8.68-5.07,13a9.67,9.67,0,0,1-2.18,3A6,6,0,0,1,436.15,82.86Z"/><path class="cls-1" d="M443.29,13.26v5c0,.71-.12,1.38-.92,1.57s-1.35.17-1.6-.73c0-.11-.48-.23-.67-.15-.45.19-.85.51-1.29.73a4.63,4.63,0,0,1-6.89-3.55c-.27-2.89-.07-5.82-.07-8.74,0-.74.44-1,1.13-1s1.35.13,1.35,1c0,2.42,0,4.83,0,7.25a3,3,0,0,0,1.6,3.1,2.93,2.93,0,0,0,4.13-1.41,11.75,11.75,0,0,0,.69-3.38c.11-1.66,0-3.33,0-5,0-.75-.08-1.58,1.06-1.59,1,0,1.34.38,1.42,1.62.05.92,0,1.84,0,2.75v2.5Z"/><path class="cls-1" d="M421.81,42.14c0-1.75,0-3.49,0-5.24,0-1.46.84-2.09,2-1.29a1.53,1.53,0,0,0,1.93,0,5,5,0,0,1,4.06-.5,4.61,4.61,0,0,1,3.38,4.46c.19,2.73.07,5.48.07,8.22,0,.89-.57,1.07-1.33,1.07s-1.16-.46-1.16-1.25c0-2.24,0-4.49,0-6.73a4.16,4.16,0,0,0-.43-2.13c-.68-1-1.5-2.06-3-1.78a3.39,3.39,0,0,0-2.92,3c-.18,1.73-.09,3.49-.11,5.23,0,.83,0,1.67-.05,2.49s-.68,1.27-1.56,1.2-.88-.62-.89-1.24V42.14Z"/><path class="cls-1" d="M391.74,5.7a18.42,18.42,0,0,1,3.39,1,4.92,4.92,0,0,1,1.62,1.81,1.14,1.14,0,0,1-.15,1.11,1.7,1.7,0,0,1-1.35.2c-.41-.15-.68-.68-1-1a3.44,3.44,0,0,0-3.94-.49A2.66,2.66,0,0,0,389.08,10c0,.42.7,1.16,1.23,1.34,1.41.49,2.89.76,4.33,1.12a3.23,3.23,0,0,1,2.67,2.63,3.82,3.82,0,0,1-1.46,4,6.75,6.75,0,0,1-4.48,1.2,6.63,6.63,0,0,1-3.05-1A6.29,6.29,0,0,1,386.5,17a1.33,1.33,0,0,1,.37-1.25,1.53,1.53,0,0,1,1.34.11c.46.3.73.88,1.13,1.28a3.56,3.56,0,0,0,5,.25,1.72,1.72,0,0,0-.4-2.87,23.32,23.32,0,0,0-2.66-.6c-.64-.15-1.29-.29-1.93-.48a3.06,3.06,0,0,1-2.51-3c-.06-1.73.38-3.15,2.11-3.85C389.82,6.26,390.78,6,391.74,5.7Z"/><path class="cls-1" d="M408,78.35c-2.11-.4-4.18-.6-5.37-2.51-.34-.55-.94-1.3-.2-2s1.24-.37,2.1.52a9.73,9.73,0,0,0,1.64,1.44c1.4.93,2.72.47,3.95-.38a1.58,1.58,0,0,0-.29-2.79,9.15,9.15,0,0,0-1.2-.3c-1.21-.31-2.4-.66-3.61-.94-2.8-.62-3.18-3.83-1.69-5.77,2-2.58,7.74-2.26,9.1.66a4,4,0,0,1,.13,1.36,4.91,4.91,0,0,1-1.62,0c-.43-.14-.7-.69-1.11-1a3.48,3.48,0,0,0-4-.33,1.65,1.65,0,0,0-1,1.58A1.39,1.39,0,0,0,406,69.36c1.28.33,2.56.69,3.86,1,2.08.44,3.09,1.32,3.37,3.09A4.15,4.15,0,0,1,411,77.48,20.76,20.76,0,0,1,408,78.35Z"/><path class="cls-1" d="M528.57,107.47c-2.22-.53-4.41-.63-5.41-2.88a4,4,0,0,1,0-1.56,10.71,10.71,0,0,1,1.8.28c.25.08.36.54.6.76a4.06,4.06,0,0,0,4.6.85c.74-.36,1.35-.91,1.12-1.71a3,3,0,0,0-1.27-1.65,9.47,9.47,0,0,0-2.38-.64c-.72-.18-1.46-.32-2.15-.56A3.41,3.41,0,0,1,523,97a4,4,0,0,1,2.16-3.43,6.76,6.76,0,0,1,6.44.25A4.47,4.47,0,0,1,533,95.41a1.35,1.35,0,0,1-.13,1.28,1.7,1.7,0,0,1-1.38,0c-.43-.18-.72-.65-1.1-1a3.4,3.4,0,0,0-3.91-.43c-1.32.76-1.45,1.83-.28,2.77a4.23,4.23,0,0,0,1.53.72c1,.25,2,.36,2.92.56a4.05,4.05,0,0,1,3.09,2.87,3.83,3.83,0,0,1-1.86,4A27,27,0,0,1,528.57,107.47Z"/><path class="cls-1" d="M354.93,42.21c0,1.75,0,3.5,0,5.24,0,1.43-.77,1.92-1.85,1.08a1.32,1.32,0,0,0-1.72-.12,5.34,5.34,0,0,1-4,.61c-2-.6-3.31-1.73-3.4-3.73-.13-2.9,0-5.81-.06-8.72,0-.84.4-1.17,1.22-1.2,1,0,1.3.48,1.29,1.38,0,2.33-.06,4.66,0,7a4.42,4.42,0,0,0,.66,2.33,2.93,2.93,0,0,0,4.83-.28,5.45,5.45,0,0,0,.94-3.3c-.05-2,0-4,0-6,0-.91.86-1.45,1.49-1a1.76,1.76,0,0,1,.57,1.23C355,38.56,354.92,40.39,354.93,42.21Z"/><path class="cls-1" d="M355.79,12.8a6.27,6.27,0,0,1,6.93-6.89,5,5,0,0,1,4.57,3.59,1.36,1.36,0,0,1-.26,1.1,1.22,1.22,0,0,1-1.13,0,4.44,4.44,0,0,1-1.22-1.15c-1.52-2-4-2.07-5.46-.11s-1.74,5.54.37,7.56c1.9,1.83,3.84,1.54,5.08-.2.24-.33.38-.86.7-1a2.39,2.39,0,0,1,1.6-.1c.23.08.37.89.27,1.3-.51,2-3.3,3.65-5.52,3.34C357.18,19.63,355.54,16.46,355.79,12.8Z"/><path class="cls-1" d="M442.33,100c.34,2,.47,4,2.83,4.85a3,3,0,0,0,3.7-1,6.53,6.53,0,0,1,1.6-1.42,1.14,1.14,0,0,1,1.09.26,1.38,1.38,0,0,1,0,1.13,5.55,5.55,0,0,1-5,3.46,6.75,6.75,0,0,1-6.24-4.83,9.27,9.27,0,0,1,.11-5.12c1.3-4.52,6.16-5.46,9.42-3.41a6.92,6.92,0,0,1,1.79,2.58,1.15,1.15,0,0,1-.15,1.08,1.23,1.23,0,0,1-1.14.15,4.7,4.7,0,0,1-1.16-1.19A3.06,3.06,0,0,0,446,95.07a3.58,3.58,0,0,0-3.16,2.76C442.67,98.56,442.49,99.28,442.33,100Z"/><path class="cls-1" d="M374.87,42.08c.21-4.57,3.32-7.39,7.24-7.15a5.6,5.6,0,0,1,4.5,3.13,1,1,0,0,1-.32,1.52,2.52,2.52,0,0,1-1.58-.16c-.24-.08-.35-.53-.55-.79-1.81-2.35-4.66-2.18-6.06.41a6.72,6.72,0,0,0,.07,6.24A3.38,3.38,0,0,0,381.32,47c1.29.06,2.31-.23,2.8-1.55a1.41,1.41,0,0,1,1.53-1c1,0,1.33.46,1,1.44a5.4,5.4,0,0,1-6,3.23C376.89,48.27,374.84,45.77,374.87,42.08Z"/><path class="cls-1" d="M402.55,13a14.38,14.38,0,0,0,1.17,3.44,3.45,3.45,0,0,0,5.83,0c.15-.2.22-.59.37-.62.68-.12,1.38-.14,2.06-.2A7.78,7.78,0,0,1,411.8,17c-.73,2.53-4.43,3.86-6.8,3-3.16-1.18-4.6-3-4.68-6.53-.09-3.76,1.39-6.15,4.49-7.25s6.57.69,7.17,3.51c.18.81-.07,1.11-.88.85a3,3,0,0,1-1.61-1,3.07,3.07,0,0,0-3.84-1.38,3.91,3.91,0,0,0-2.77,3.43,5.78,5.78,0,0,0,0,1.25Z"/><path class="cls-1" d="M492.83,100.14c.24-4,1.92-6.3,5.33-7.14a5.47,5.47,0,0,1,6.3,3.23c.13.37,0,1.19-.18,1.26a2.32,2.32,0,0,1-1.56-.07c-.32-.12-.45-.67-.7-1a3.56,3.56,0,0,0-6.09.83,6.82,6.82,0,0,0-.13,5.34,3.71,3.71,0,0,0,3.13,2.5,3.12,3.12,0,0,0,3.1-1.64,2.61,2.61,0,0,1,1.23-1,1.65,1.65,0,0,1,1.33.35c.17.14,0,.79-.1,1.15a5.7,5.7,0,0,1-7.08,3A7.09,7.09,0,0,1,492.83,100.14Z"/><path class="cls-1" d="M368.37,77.86c-.91.1-1.34-.25-1.67-1.11-1.4-3.64-2.92-7.23-4.36-10.85-.19-.47-.82-1.12.08-1.44.67-.23,1.53-.36,2,.52s1,1.94,1.36,2.94c.73,1.85,1.38,3.73,2.09,5.59a2.83,2.83,0,0,0,.56.7,2.67,2.67,0,0,0,.59-.72c.75-1.92,1.47-3.87,2.19-5.81.29-.77.62-1.54.89-2.32a1.49,1.49,0,0,1,1.78-1c.8.06,1,.4.68,1.15-1.36,3.48-2.65,7-4,10.46C370.14,77,369.84,78.14,368.37,77.86Z"/><path class="cls-1" d="M469.82,71.94c0-1.08,0-2.16,0-3.24s.12-2.23-1.44-2.68a.82.82,0,0,1,.23-1.58c1.21-.19,1.23-.88,1.21-1.75a8.56,8.56,0,0,1,0-1.24A3.74,3.74,0,0,1,474.19,58c.39,0,1,.55,1,.85a2.66,2.66,0,0,1-.73,1.35c-.11.15-.47.08-.71.16-1.24.39-2.09,2.63-1.25,3.58.3.34,1.07.24,1.58.43a6.69,6.69,0,0,1,1.13.71c-.33.4-.65.82-1,1.2-.09.09-.32.07-.48.06-1.35-.12-1.44.74-1.43,1.75,0,1.82,0,3.65,0,5.47,0,.75,0,1.49,0,2.24,0,1.83-.22,2.11-1.32,2.08s-1.16-.27-1.19-2C469.81,74.59,469.82,73.26,469.82,71.94Z"/><path class="cls-1" d="M424.35,70.93V68.44c0-1,.15-1.91-1.26-2.31-.92-.26-.93-1.53-.15-1.62,1.5-.19,1.37-1.11,1.43-2.13A2.11,2.11,0,0,1,424.8,61a1.3,1.3,0,0,1,2,.88,7.32,7.32,0,0,1,0,1.24c0,.84.37,1.21,1.2,1.19a4.62,4.62,0,0,1,1.49.07c.31.09.76.53.73.76a2.67,2.67,0,0,1-.7,1.11c-.07.09-.31,0-.48,0-2.22.27-2.23.27-2.24,2.42,0,1.66,0,3.32,0,5,0,1.49.41,1.88,1.84,2.11a4.13,4.13,0,0,0,.5,0c.62.06,1.48-.21,1.54.77s-.68,1.24-1.51,1.26a10.17,10.17,0,0,1-2,0c-1.31-.2-2.39-.78-2.57-2.27s-.31-3.11-.46-4.67Z"/><path class="cls-1" d="M374.82,97.06c0,2.83,0,5.66,0,8.48,0,1.1-.57,1.53-1.57,1.28a1.39,1.39,0,0,1-.82-.74,4.53,4.53,0,0,1-.1-1.48V89.39a3.21,3.21,0,0,1,.11-1.47,2,2,0,0,1,1.26-.9c.31,0,.89.46,1,.84a5.14,5.14,0,0,1,.11,1.72v7.48Z"/><path class="cls-1" d="M450.33,10.17c0,2.83,0,5.65,0,8.48,0,.79-.29,1.27-1.16,1.27s-1.31-.19-1.31-1.09c0-.74,0-1.49,0-2.24q0-6.87,0-13.73a5.2,5.2,0,0,1,.08-1.73A1.92,1.92,0,0,1,449,0c.74-.16,1.23.36,1.3,1.15,0,.5,0,1,0,1.5v7.49Z"/><path class="cls-1" d="M392.79,71.1c0-1.83,0-3.66,0-5.48a1.5,1.5,0,0,1,.63-1.15c.51-.25,1.2-.23,1.39.55s.55.47,1,.22A15.21,15.21,0,0,1,398.52,64a1.25,1.25,0,0,1,1.74.94c.16.69.08,1.39-.87,1.42-3.54.11-4.29,2.75-4.46,5.42-.11,1.66,0,3.32-.06,5,0,1-.76,1.48-1.44,1a1.73,1.73,0,0,1-.61-1.19,24.83,24.83,0,0,1,0-2.73V71.1Z"/><path class="cls-1" d="M358.79,71.13c0,1.75,0,3.5,0,5.24,0,.85-.35,1.52-1.3,1.46a1.52,1.52,0,0,1-1.12-.67,5.77,5.77,0,0,1-.44-2.18c-.05-2.74,0-5.49,0-8.23a6.55,6.55,0,0,1,.24-1.46c.23-1,1-1,1.77-.91s.87.65.87,1.26c0,1.83,0,3.66,0,5.49Z"/><path class="cls-1" d="M419.38,71.24v5.24c0,.72-.09,1.35-1,1.39a1.27,1.27,0,0,1-1.45-1.33,4.18,4.18,0,0,1,0-.5c0-3.41,0-6.83,0-10.24,0-.86.21-1.46,1.23-1.45.79,0,1.27.28,1.27,1.15,0,1.91,0,3.83,0,5.74Z"/><path class="cls-1" d="M381.87,100.11c0,1.82,0,3.65,0,5.48,0,.61-.07,1.18-.86,1.25a1.26,1.26,0,0,1-1.58-1.17c-.06-.5,0-1-.05-1.5,0-2.4,0-4.81,0-7.22a13.71,13.71,0,0,1,.24-2.21c.13-.75.28-1.51,1.36-1.37s.87.86.88,1.51c0,1.74,0,3.48,0,5.23Z"/><path class="cls-1" d="M457.87,100.11v5.48c0,.77-.24,1.29-1.13,1.26s-1.18-.3-1.18-1.2c0-2.9-.1-5.79-.15-8.69,0-.73,0-1.45,0-2.18,0-.94.44-1.39,1.33-1.42s1.13.51,1.12,1.27Z"/><path class="cls-1" d="M458.29,89.12c-.05,1.23-.49,1.69-1.48,1.69s-1.53-.56-1.47-1.8c.05-1,.46-1.23,1.71-1.19C458,87.85,458.35,88.37,458.29,89.12Z"/><path class="cls-1" d="M380.81,87.83c1.2,0,1.53.31,1.49,1.41s-.47,1.57-1.46,1.57-1.45-.46-1.49-1.54S379.63,87.83,380.81,87.83Z"/><path class="cls-1" d="M357.44,58.87c.74,0,1.38.12,1.38,1.18,0,1.24-.41,1.79-1.48,1.79s-1.42-.45-1.46-1.56S356.13,58.87,357.44,58.87Z"/><path class="cls-1" d="M419.78,60.49a1.27,1.27,0,0,1-1.43,1.35c-1.09,0-1.57-.56-1.5-1.79,0-.93.44-1.25,1.48-1.17A1.36,1.36,0,0,1,419.78,60.49Z"/><path class="cls-1" d="M348.37,31.19c0,1.32-.25,1.68-1.26,1.7s-1.28-.49-1.27-1.39c0-1.27.24-1.6,1.28-1.62S348.44,30.36,348.37,31.19Z"/><path class="cls-1" d="M350.82,31.43c0-1.17.28-1.56,1.12-1.53s1.33.56,1.37,1.43a1.33,1.33,0,0,1-1.51,1.53C350.84,32.8,350.83,32.12,350.82,31.43Z"/></svg>