<svg id="Ebene_1" data-name="Ebene 1" xmlns="http://www.w3.org/2000/svg" viewBox="0 0 328 146">
  <defs>
    <style>
      .cls-1 {
        fill: #006399;
      }

      .cls-2 {
        fill: #d90034;
      }
    </style>
  </defs>
  <title>sfh_logo</title>
  <g>
    <path class="cls-1" d="M15.88,57.87,24,14.54h8.7L29.41,31.87h.12A12.4,12.4,0,0,1,39,27.36c4.59,0,7.43,2.92,7.43,8a36.37,36.37,0,0,1-.55,5.37l-3.2,17.09H33.94L37,41.51a17.75,17.75,0,0,0,.37-3.66c0-2-.79-3.42-3-3.42-3.08,0-6.16,3.79-7.25,9.77L24.58,57.87Z"/>
    <path class="cls-1" d="M81,39.62C81,50.54,73.6,58.54,63.4,58.54c-7.49,0-12.5-4.94-12.5-12.39C50.9,35.84,58,27.3,68.53,27.3c7.91,0,12.5,5.49,12.5,12.32ZM59.89,46c0,3.48,1.7,5.79,4.77,5.79,4.65,0,7.37-7.08,7.37-12.14,0-2.74-1.2-5.67-4.65-5.67-5,0-7.49,7.38-7.49,12Z"/>
    <path class="cls-1" d="M105.72,56.89a20,20,0,0,1-8.39,1.59C90,58.48,84.89,54,84.89,46.27c0-10.62,8-18.91,19.26-18.91a18.25,18.25,0,0,1,6,1L108,35.1a10.07,10.07,0,0,0-4-.73c-6.16,0-10,5.31-10,10.93,0,4.09,2.6,6.16,5.8,6.16a14.77,14.77,0,0,0,5.86-1.22l.06,6.65Z"/>
    <path class="cls-1" d="M110.19,57.87l8.15-43.33H127l-3.32,17.33h.12a12.43,12.43,0,0,1,9.42-4.51c4.59,0,7.43,2.92,7.43,8a36.27,36.27,0,0,1-.54,5.37l-3.2,17.09h-8.7l3.08-16.36a18.47,18.47,0,0,0,.36-3.66c0-2-.79-3.42-3-3.42-3.08,0-6.16,3.79-7.24,9.77l-2.6,13.67Z"/>
    <path class="cls-1" d="M145.26,50a18.86,18.86,0,0,0,7.67,2.07c2.47,0,3.74-1.22,3.74-2.68s-1-2.51-3.68-3.85c-3.38-1.71-6.22-4.21-6.22-7.93,0-6.23,5.37-10.31,13-10.31a16.92,16.92,0,0,1,7.61,1.52L165.25,35a14.45,14.45,0,0,0-5.86-1.28c-2.35,0-3.86,1-3.86,2.63,0,1.22,1.2,2.26,3.56,3.41,3.26,1.66,6.64,4,6.64,8.18,0,6.84-5.74,10.56-13.59,10.5-3.74-.06-7.24-1-9-2.32L145.26,50Z"/>
    <path class="cls-1" d="M191.09,56.89a20,20,0,0,1-8.39,1.59c-7.31,0-12.45-4.52-12.45-12.21,0-10.62,8-18.91,19.27-18.91a18.25,18.25,0,0,1,6,1l-2.18,6.77a10,10,0,0,0-4-.73c-6.16,0-10,5.31-10,10.93,0,4.09,2.6,6.16,5.8,6.16A14.81,14.81,0,0,0,191,50.24l.06,6.65Z"/>
    <path class="cls-1" d="M195.55,57.87l8.15-43.33h8.7l-3.32,17.33h.12a12.43,12.43,0,0,1,9.42-4.51c4.59,0,7.43,2.92,7.43,8a36.37,36.37,0,0,1-.55,5.37l-3.2,17.09h-8.69l3.08-16.36a18.47,18.47,0,0,0,.36-3.66c0-2-.79-3.42-3-3.42-3.08,0-6.16,3.79-7.24,9.77l-2.6,13.67Z"/>
    <path class="cls-1" d="M261.07,28l-3.75,20.14c-.72,3.78-1.21,7-1.57,9.7h-7.67l.55-4.82-.12-.06c-3,3.9-6.59,5.55-10.15,5.55-4.77,0-7.61-2.69-7.61-8.36a27.92,27.92,0,0,1,.6-5.5L234.5,28h8.69l-3,16a24.54,24.54,0,0,0-.42,4c0,1.89.78,3.42,3,3.42,3,0,6-3.6,7.12-9.53L252.43,28Z"/>
    <polygon class="cls-1" points="262.87 57.87 271.08 14.54 279.78 14.54 271.57 57.87 262.87 57.87"/>
    <path class="cls-2" d="M8.14,98a18.7,18.7,0,0,0,7.67,2.07c2.47,0,3.75-1.21,3.75-2.68s-1-2.5-3.69-3.85c-3.38-1.71-6.22-4.2-6.22-7.93,0-6.23,5.37-10.31,13-10.31a17,17,0,0,1,7.61,1.52L28.13,83a14.49,14.49,0,0,0-5.86-1.28c-2.35,0-3.86,1-3.86,2.62,0,1.22,1.2,2.26,3.56,3.42,3.26,1.65,6.64,4,6.64,8.18,0,6.83-5.73,10.55-13.59,10.49-3.74-.06-7.24-1-9-2.31L8.14,98Z"/>
    <path class="cls-2" d="M48.83,67.89,47.32,76h6.34l-1.32,6.72H46.06l-2,10.12a21.84,21.84,0,0,0-.48,3.79c0,1.46.61,2.5,2.54,2.5A15.62,15.62,0,0,0,48.48,99l-1,6.89a17.4,17.4,0,0,1-5.13.67c-5.26,0-7.73-2.68-7.73-6.47a25.87,25.87,0,0,1,.66-5.55l2.24-11.84H33.8L35,76h3.8l1.09-5.62,8.93-2.44Z"/>
    <path class="cls-2" d="M72.38,105.85c.06-1.77.24-3.78.37-5.92h-.13c-2.71,4.95-6.52,6.59-10,6.59-5.31,0-8.94-4.14-8.94-10.37,0-10.07,6.65-20.81,21.14-20.81a34.26,34.26,0,0,1,9.78,1.47L81.56,92.43a73.51,73.51,0,0,0-1.21,13.42Zm2.48-23.62A13,13,0,0,0,72.5,82c-5.62,0-9.72,7-9.72,12.51,0,2.93,1.15,4.94,3.56,4.94,2.6,0,5.8-3,7.19-10.31l1.33-6.9Z"/>
    <path class="cls-2" d="M86.75,105.85l3.32-17.76c.84-4.51,1.21-9.52,1.51-12.08h7.55c-.19,2-.3,4-.55,6.1h.18c2.11-4,5.37-6.77,9.42-6.77a14.71,14.71,0,0,1,1.63.06l-1.69,8.54a10.25,10.25,0,0,0-1.39-.06c-5.55,0-8.15,5-9.23,10.87l-2.06,11.1Z"/>
    <path class="cls-2" d="M127.32,67.89,125.81,76h6.34l-1.33,6.72h-6.28l-2,10.12a21.84,21.84,0,0,0-.48,3.79c0,1.46.6,2.5,2.53,2.5A15.49,15.49,0,0,0,127,99l-1,6.89a17.4,17.4,0,0,1-5.13.67c-5.26,0-7.73-2.68-7.73-6.47a26.52,26.52,0,0,1,.66-5.55L116,82.66h-3.74l1.2-6.71h3.81l1.08-5.62,8.94-2.44Z"/>
    <path class="cls-2" d="M131.48,101.4a6,6,0,0,1,5.86-6.23,4.9,4.9,0,0,1,5,5.25,5.78,5.78,0,0,1-6,6,4.73,4.73,0,0,1-4.84-5.06Z"/>
    <path class="cls-2" d="M181.54,62.53l-6,31.73a81.58,81.58,0,0,0-1.39,11.59h-8l.43-4.82h-.13a11.3,11.3,0,0,1-9.72,5.49c-5,0-9.12-4-9.12-11.29,0-10.37,7.43-20,18.61-20a12.29,12.29,0,0,1,4,.73l2.59-13.48ZM169.1,83a5.65,5.65,0,0,0-3.44-1c-5.25,0-8.94,6.1-8.94,11.84,0,3.6,1.57,5.61,4.05,5.61s5.61-2.68,6.76-8.42l1.57-8Z"/>
    <path class="cls-2" d="M205.39,104.15a25.4,25.4,0,0,1-11,2.37c-8.4,0-12.75-4.82-12.75-12.63,0-9.09,6.52-18.55,17.22-18.55,6,0,10.26,3.42,10.26,9,0,7.57-7.3,10.31-19.2,10a6.59,6.59,0,0,0,1,3.05c1.15,1.52,3.15,2.32,5.68,2.32a18.4,18.4,0,0,0,8.27-1.89l.61,6.35Zm-7.67-22.4c-4.05,0-6.41,3.42-7,6.16,6.83.06,10.21-.85,10.21-3.66,0-1.47-1.21-2.5-3.2-2.5Z"/>
    <path class="cls-1" d="M234.72,99.59S305.9,92.33,324,34c-7.49,57.73-59.93,78.55-59.93,78.55L234.72,99.59Z"/>
    <path class="cls-2" d="M219.12,86.22S302.48,77.13,323.69,4c-8.78,72.34-70.2,98.42-70.2,98.42l-34.37-16.2Z"/>
    <path class="cls-1" d="M4.73,134.29a6.22,6.22,0,0,0,3.49,1.05c1.85,0,3.56-1.1,3.56-3.09,0-1.24-.68-2.17-2.41-3.11-2.1-1.16-3.27-2.49-3.27-4.27,0-3,2.53-4.88,5.56-4.88a6.06,6.06,0,0,1,3.36.87l-.73,1.67a5.49,5.49,0,0,0-2.85-.79,3,3,0,0,0-3.24,2.71c0,1.36.82,2.13,2.56,3.09,2,1.1,3.12,2.41,3.12,4.46,0,2.85-2.22,5.12-5.93,5.12A6.74,6.74,0,0,1,4,136l.73-1.67Z"/>
    <path class="cls-1" d="M21,122.06l-.53,2.86h2.82l-.31,1.6H20.12l-1.07,5.8a8.54,8.54,0,0,0-.25,1.89,1,1,0,0,0,1.12,1.16,3.45,3.45,0,0,0,1-.1l-.1,1.61a4.92,4.92,0,0,1-1.56.22,2.21,2.21,0,0,1-2.49-2.32,11.32,11.32,0,0,1,.27-2.22l1.14-6H16.46l.29-1.6h1.68l.42-2.22,2.12-.65Z"/>
    <path class="cls-1" d="M23.39,136.85l2.26-11.93h2l-2.24,11.93ZM26,121.62a1.36,1.36,0,0,1,1.31-1.38,1.19,1.19,0,0,1,1.22,1.28,1.34,1.34,0,0,1-1.38,1.38A1.16,1.16,0,0,1,26,121.62Z"/>
    <path class="cls-1" d="M29.24,136.85l2-10.33H29.6l.32-1.6h1.56l.12-.64a7.32,7.32,0,0,1,1.93-4.14,4.17,4.17,0,0,1,2.8-1.06,3.42,3.42,0,0,1,1.64.32L37.53,121a2.86,2.86,0,0,0-1.2-.22c-1.61,0-2.39,1.58-2.73,3.55l-.1.57h2.61l-.29,1.6H33.19l-1.93,10.32Z"/>
    <path class="cls-1" d="M41.23,122.06l-.53,2.86h2.83l-.32,1.6H40.38l-1.07,5.8a8.51,8.51,0,0,0-.24,1.89c0,.72.33,1.16,1.11,1.16a3.45,3.45,0,0,0,1-.1l-.1,1.61a4.87,4.87,0,0,1-1.56.22A2.21,2.21,0,0,1,37,134.78a11.32,11.32,0,0,1,.27-2.22l1.15-6H36.72l.3-1.6H38.7l.41-2.22,2.12-.65Z"/>
    <path class="cls-1" d="M55.15,124.92l-1.58,8.46c-.27,1.33-.41,2.49-.53,3.47H51.23l.29-2.24h-.05a5.2,5.2,0,0,1-4.14,2.51c-1.52,0-3.12-.74-3.12-3.45a11,11,0,0,1,.22-2l1.29-6.72h2l-1.24,6.65a9.2,9.2,0,0,0-.2,1.75c0,1.23.49,2.07,1.88,2.07S51.5,133.65,52,131l1.15-6.1h2Z"/>
    <path class="cls-1" d="M56.5,136.85l1.56-8.45c.26-1.33.43-2.49.56-3.48h1.8l-.29,2.34h0a5.18,5.18,0,0,1,4.36-2.61c1.42,0,3,.82,3,3.3a11.65,11.65,0,0,1-.22,1.93l-1.31,7H64L65.3,130a10.58,10.58,0,0,0,.15-1.53c0-1.18-.47-2.06-1.86-2.06s-3.48,1.74-4,4.7l-1.07,5.79Z"/>
    <path class="cls-1" d="M69.61,139.56a6,6,0,0,0,3.13.79c2,0,3.55-1,4.24-4.24l.39-1.8h-.05a4.75,4.75,0,0,1-4.1,2.54c-2.39,0-3.61-2-3.61-4.14,0-4,2.93-8.06,7.49-8.06a9.64,9.64,0,0,1,3.8.84l-1.83,9.85c-.46,2.54-1.14,4.27-2.36,5.35A6.38,6.38,0,0,1,72.59,142a6.81,6.81,0,0,1-3.54-.84l.56-1.6Zm9.08-12.86a5,5,0,0,0-2-.4c-3,0-5,3.13-5,6.07,0,1.32.47,2.85,2.27,2.85s3.49-2.22,3.93-4.53l.76-4Z"/>
    <path class="cls-1" d="M87,136.85l2-10.33H87.34l.32-1.6h1.56l.12-.64a7.32,7.32,0,0,1,1.92-4.14,4.22,4.22,0,0,1,2.81-1.06,3.37,3.37,0,0,1,1.63.32L95.26,121a2.81,2.81,0,0,0-1.19-.22c-1.61,0-2.39,1.58-2.73,3.55l-.1.57h2.61l-.29,1.6H90.92L89,136.85Z"/>
    <path class="cls-1" d="M105.12,124.92l-1.59,8.46c-.27,1.33-.42,2.49-.54,3.47h-1.8l.29-2.24h0a5.18,5.18,0,0,1-4.14,2.51c-1.51,0-3.12-.74-3.12-3.45a11.83,11.83,0,0,1,.21-2l1.3-6.72h2l-1.25,6.65a10,10,0,0,0-.19,1.75c0,1.23.49,2.07,1.88,2.07s3.34-1.75,3.82-4.37l1.15-6.1h2Zm-7.56-3.32a1.27,1.27,0,0,1,1.26-1.31A1.13,1.13,0,0,1,100,121.5a1.25,1.25,0,0,1-1.27,1.3,1.14,1.14,0,0,1-1.14-1.2Zm4.46,0a1.27,1.27,0,0,1,1.27-1.31,1.13,1.13,0,0,1,1.14,1.21,1.26,1.26,0,0,1-1.29,1.3,1.12,1.12,0,0,1-1.12-1.2Z"/>
    <path class="cls-1" d="M106.45,136.85l1.44-7.69c.27-1.55.47-3.13.59-4.24h1.78c-.1.84-.2,1.68-.32,2.59H110c.76-1.62,2-2.86,3.61-2.86a5.2,5.2,0,0,1,.59,0l-.39,2a4.18,4.18,0,0,0-.56,0c-1.76,0-3.32,2.14-3.83,4.92l-1,5.25Z"/>
    <polygon class="cls-1" points="123.84 120.24 122.52 127.24 130.08 127.24 131.4 120.24 133.42 120.24 130.3 136.85 128.28 136.85 129.72 129.04 122.18 129.04 120.72 136.85 118.69 136.85 121.82 120.24 123.84 120.24"/>
    <path class="cls-1" d="M145.25,129.61c0,3.69-2.59,7.51-6.56,7.51-2.95,0-4.61-2.22-4.61-4.9,0-3.94,2.71-7.57,6.54-7.57,3.19,0,4.63,2.44,4.63,5Zm-9.07,2.53c0,2,1.07,3.36,2.78,3.36,2.39,0,4.19-3.11,4.19-5.89,0-1.38-.63-3.33-2.75-3.33-2.54,0-4.22,3.13-4.22,5.86Z"/>
    <path class="cls-1" d="M154.83,136.36a7.65,7.65,0,0,1-3.41.74,4.27,4.27,0,0,1-4.54-4.61c0-4.07,3-7.81,7.22-7.81a5.75,5.75,0,0,1,2.46.52l-.58,1.62a4.6,4.6,0,0,0-2-.44c-3.08,0-5,3.06-5,5.87,0,1.91,1,3.17,2.92,3.17a6.11,6.11,0,0,0,2.73-.66l.2,1.6Z"/>
    <path class="cls-1" d="M157,136.85l3.29-17.49h2L160.88,127h.05a5,5,0,0,1,4.21-2.37,2.87,2.87,0,0,1,2.93,3.21,10.18,10.18,0,0,1-.2,2l-1.31,7h-2l1.32-6.9a9.81,9.81,0,0,0,.15-1.65,1.72,1.72,0,0,0-1.83-1.94c-1.56,0-3.54,1.84-4,4.5l-1.09,6Z"/>
    <path class="cls-1" d="M170.17,134.78a5.18,5.18,0,0,0,2.53.74,2,2,0,0,0,2.25-2c0-.93-.42-1.5-1.66-2.19a3.55,3.55,0,0,1-2.12-3.06c0-2.07,1.77-3.67,4.26-3.67a4.82,4.82,0,0,1,2.47.6l-.56,1.55a4.16,4.16,0,0,0-2.05-.55,1.91,1.91,0,0,0-2.1,1.8c0,.87.56,1.4,1.63,2a3.7,3.7,0,0,1,2.2,3.13c0,2.51-2,3.92-4.49,3.92a5.38,5.38,0,0,1-2.95-.82l.59-1.5Z"/>
    <path class="cls-1" d="M187.26,136.36a7.67,7.67,0,0,1-3.42.74,4.27,4.27,0,0,1-4.53-4.61c0-4.07,3-7.81,7.22-7.81a5.75,5.75,0,0,1,2.46.52l-.58,1.62a4.63,4.63,0,0,0-2-.44c-3.08,0-5,3.06-5,5.87,0,1.91,1,3.17,2.92,3.17a6.11,6.11,0,0,0,2.73-.66l.2,1.6Z"/>
    <path class="cls-1" d="M189.45,136.85l3.3-17.49h2L193.3,127h0a5.07,5.07,0,0,1,4.22-2.37,2.87,2.87,0,0,1,2.93,3.21,11,11,0,0,1-.2,2l-1.31,7h-2l1.32-6.9a10,10,0,0,0,.14-1.65,1.71,1.71,0,0,0-1.82-1.94c-1.57,0-3.54,1.84-4,4.5l-1.09,6Z"/>
    <path class="cls-1" d="M213.86,124.92l-1.58,8.46c-.27,1.33-.42,2.49-.54,3.47h-1.81l.29-2.24h0a5.21,5.21,0,0,1-4.15,2.51c-1.51,0-3.12-.74-3.12-3.45a11,11,0,0,1,.22-2l1.29-6.72h2l-1.24,6.65a10.09,10.09,0,0,0-.2,1.75c0,1.23.49,2.07,1.88,2.07s3.34-1.75,3.83-4.37l1.14-6.1h2Z"/>
    <polygon class="cls-1" points="215.2 136.85 218.49 119.36 220.51 119.36 217.22 136.85 215.2 136.85"/>
    <path class="cls-1" d="M219.78,135.6l5.73-6.46a29.77,29.77,0,0,1,2.47-2.46v-.08h-6l.34-1.67h8.46l-.27,1.35-5.63,6.36c-1.07,1.16-1.71,1.77-2.44,2.46l0,.08h6.56l-.35,1.67h-9l.22-1.25Z"/>
    <path class="cls-1" d="M242.39,124.92l-1.59,8.46c-.27,1.33-.41,2.49-.53,3.47h-1.81l.29-2.24h-.05a5.18,5.18,0,0,1-4.14,2.51c-1.51,0-3.12-.74-3.12-3.45a11.83,11.83,0,0,1,.21-2l1.3-6.72h2l-1.24,6.65a9.2,9.2,0,0,0-.2,1.75c0,1.23.49,2.07,1.88,2.07s3.34-1.75,3.83-4.37l1.14-6.1h2Z"/>
    <polygon class="cls-1" points="243.73 136.85 247.02 119.36 249.04 119.36 245.75 136.85 243.73 136.85"/>
    <path class="cls-1" d="M257.11,136.85a30.15,30.15,0,0,1,.27-3.08h-.05c-1.27,2.49-2.9,3.35-4.58,3.35-2.1,0-3.39-1.67-3.39-3.94,0-4.17,3-8.53,8.17-8.53a11.9,11.9,0,0,1,3.19.45l-1.22,6.23a27.17,27.17,0,0,0-.48,5.52Zm1.32-10.4a4.52,4.52,0,0,0-1.39-.17c-3.07,0-5.58,3.21-5.58,6.53,0,1.33.46,2.64,2,2.64s3.68-2.22,4.27-5.4l.68-3.6Z"/>
    <path class="cls-1" d="M262.13,134.78a5.19,5.19,0,0,0,2.54.74,2,2,0,0,0,2.24-2c0-.93-.41-1.5-1.66-2.19a3.55,3.55,0,0,1-2.11-3.06c0-2.07,1.77-3.67,4.26-3.67a4.82,4.82,0,0,1,2.47.6l-.56,1.55a4.2,4.2,0,0,0-2.06-.55,1.9,1.9,0,0,0-2.09,1.8c0,.87.56,1.4,1.63,2a3.7,3.7,0,0,1,2.2,3.13c0,2.51-2,3.92-4.49,3.92a5.38,5.38,0,0,1-2.95-.82l.58-1.5Z"/>
    <path class="cls-1" d="M271.23,134.78a5.18,5.18,0,0,0,2.53.74,2,2,0,0,0,2.25-2c0-.93-.42-1.5-1.66-2.19a3.56,3.56,0,0,1-2.12-3.06c0-2.07,1.78-3.67,4.27-3.67a4.81,4.81,0,0,1,2.46.6l-.56,1.55a4.16,4.16,0,0,0-2-.55,1.91,1.91,0,0,0-2.1,1.8c0,.87.56,1.4,1.64,2a3.68,3.68,0,0,1,2.19,3.13c0,2.51-2,3.92-4.48,3.92a5.42,5.42,0,0,1-3-.82l.59-1.5Z"/>
    <path class="cls-1" d="M291.71,124.92l-1.58,8.46c-.27,1.33-.42,2.49-.54,3.47h-1.8l.29-2.24H288a5.21,5.21,0,0,1-4.15,2.51c-1.51,0-3.12-.74-3.12-3.45a11,11,0,0,1,.22-2l1.3-6.72h2L283,131.58a10.09,10.09,0,0,0-.2,1.75c0,1.23.49,2.07,1.88,2.07s3.34-1.75,3.83-4.37l1.15-6.1h2Z"/>
    <path class="cls-1" d="M293.05,136.85l1.56-8.45c.27-1.33.44-2.49.56-3.48H297l-.29,2.34h0a5.2,5.2,0,0,1,4.37-2.61c1.42,0,3,.82,3,3.3a11.65,11.65,0,0,1-.22,1.93l-1.32,7h-2l1.3-6.9a10.6,10.6,0,0,0,.14-1.53c0-1.18-.46-2.06-1.85-2.06s-3.49,1.74-4,4.7l-1.08,5.79Z"/>
    <path class="cls-1" d="M306.17,139.56a6,6,0,0,0,3.12.79c2,0,3.56-1,4.24-4.24l.4-1.8h-.05a4.75,4.75,0,0,1-4.1,2.54c-2.39,0-3.61-2-3.61-4.14,0-4,2.93-8.06,7.49-8.06a9.72,9.72,0,0,1,3.8.84l-1.83,9.85c-.46,2.54-1.14,4.27-2.36,5.35a6.39,6.39,0,0,1-4.13,1.31,6.8,6.8,0,0,1-3.53-.84l.56-1.6Zm9.07-12.86a4.93,4.93,0,0,0-1.95-.4c-3,0-5,3.13-5,6.07,0,1.32.47,2.85,2.27,2.85s3.48-2.22,3.93-4.53l.75-4Z"/>
  </g>
</svg>
